<svg xmlns="http://www.w3.org/2000/svg" width="1600" height="900" viewBox="0 0 1600 900" role="img" aria-label="مدى الإنسان">
  <defs><linearGradient id="g" x1="0" x2="1" y1="0" y2="1"><stop offset="0" stop-color="#0D1B2A"/><stop offset="1" stop-color="#2F8F6B"/></linearGradient></defs>
  <rect width="1600" height="900" fill="#F7F4ED"/>
  <rect x="80" y="80" width="1440" height="740" rx="44" fill="url(#g)" opacity="0.97"/>
  <path d="M482 585c120-95 245-95 318 0 73-95 198-95 318 0" fill="none" stroke="#C9A24E" stroke-width="28" stroke-linecap="round"/>
  <path d="M520 626c105-78 213-78 280 0 67-78 175-78 280 0" fill="none" stroke="#fff" stroke-width="20" stroke-linecap="round" opacity="0.92"/>
  <circle cx="800" cy="352" r="54" fill="#C9A24E"/>
  <path d="M748 528c13-110 64-174 150-218-37 70-47 143-18 220-51-26-89-26-132-2z" fill="#fff" opacity="0.95"/>
  <text x="800" y="735" text-anchor="middle" fill="#fff" font-family="Arial, sans-serif" font-size="58" font-weight="700">مدى الإنسان</text>
  <text x="800" y="790" text-anchor="middle" fill="#F7F4ED" font-family="Arial, sans-serif" font-size="30">إنسانية - اجتماعية - ثقافية - علمية - متنوعة</text>
</svg>
